<svg width="16" height="16" viewBox="0 0 16 16" fill="none" xmlns="http://www.w3.org/2000/svg">
<path d="M8 6.0025C8.39556 6.0025 8.78224 6.1198 9.11114 6.33956C9.44004 6.55933 9.69638 6.87168 9.84776 7.23714C9.99914 7.60259 10.0387 8.00472 9.96157 8.39268C9.8844 8.78064 9.69392 9.13701 9.41421 9.41672C9.13451 9.69642 8.77814 9.8869 8.39018 9.96407C8.00222 10.0412 7.60009 10.0016 7.23463 9.85026C6.86918 9.69889 6.55682 9.44254 6.33706 9.11364C6.1173 8.78474 6 8.39806 6 8.0025C6.00066 7.47227 6.21159 6.96395 6.58652 6.58902C6.96145 6.21409 7.46977 6.00316 8 6.0025ZM8 5.0025C7.40666 5.0025 6.82664 5.17845 6.33329 5.50809C5.83994 5.83774 5.45543 6.30627 5.22836 6.85445C5.0013 7.40263 4.94189 8.00583 5.05765 8.58777C5.1734 9.16972 5.45912 9.70427 5.87868 10.1238C6.29824 10.5434 6.83279 10.8291 7.41473 10.9449C7.99667 11.0606 8.59987 11.0012 9.14805 10.7741C9.69623 10.5471 10.1648 10.1626 10.4944 9.66921C10.8241 9.17587 11 8.59585 11 8.0025C11 7.20685 10.6839 6.44379 10.1213 5.88118C9.55871 5.31857 8.79565 5.0025 8 5.0025Z" fill="white"/>
<path d="M2.69702 3.40651L3.40402 2.69901L5.15702 4.45201L4.45002 5.15901L2.69702 3.40651Z" fill="white"/>
<path d="M1 7.5025H3.5V8.5025H1V7.5025Z" fill="white"/>
<path d="M2.69702 12.5985L4.45002 10.8455L5.15702 11.553L3.40402 13.3055L2.69702 12.5985Z" fill="white"/>
<path d="M7.5 12.5025H8.5V15.0025H7.5V12.5025Z" fill="white"/>
<path d="M10.8435 11.553L11.5505 10.8455L13.3035 12.5985L12.5965 13.3055L10.8435 11.553Z" fill="white"/>
<path d="M12.5 7.5025H15V8.5025H12.5V7.5025Z" fill="white"/>
<path d="M10.8435 4.45201L12.5965 2.69901L13.3035 3.40651L11.5505 5.15901L10.8435 4.45201Z" fill="white"/>
<path d="M7.5 1.0025H8.5V3.5025H7.5V1.0025Z" fill="white"/>
</svg>
